<?xml version="1.0" encoding="UTF-8"?>
<svg xmlns="http://www.w3.org/2000/svg" width="32" height="32" viewBox="0 0 32 32">
  <g fill-rule="evenodd" shape-rendering="geometricPrecision">
    <path d="M 7.250 19.312 L 6.125 19.312 L 5.500 17.938 L 5.062 18.000 L 5.000 19.312 L 3.938 19.250 L 4.000 15.312 L 5.875 15.188 L 7.062 15.750 L 7.312 16.750 L 6.688 17.875 L 7.250 19.312 Z" fill="#f47201"/>
    <path d="M 20.875 19.438 L 19.500 19.438 L 18.812 19.000 L 18.438 18.250 L 18.625 17.938 L 19.500 17.938 L 19.750 18.438 L 20.688 18.375 L 20.625 17.938 L 19.000 17.438 L 18.562 16.750 L 18.688 15.875 L 19.750 15.188 L 20.750 15.188 L 21.688 15.875 L 21.750 16.562 L 20.750 16.562 L 20.500 16.188 L 19.688 16.375 L 21.250 16.938 L 21.938 17.750 L 21.688 18.875 L 20.875 19.438 Z" fill="#f47201"/>
    <path d="M 12.625 19.438 L 11.438 19.125 L 11.562 15.375 L 14.000 15.312 L 14.688 15.875 L 14.812 17.125 L 13.875 18.062 L 12.688 18.125 L 12.625 19.438 Z" fill="#f47201"/>
    <path d="M 18.000 19.438 L 17.188 19.250 L 17.125 17.812 L 16.188 17.875 L 16.125 19.438 L 14.938 19.250 L 15.000 15.312 L 16.188 15.375 L 16.250 16.812 L 17.188 16.750 L 17.250 15.312 L 18.312 15.375 L 18.312 19.250 L 18.000 19.438 Z" fill="#f47201"/>
    <path d="M 25.875 19.438 L 24.750 19.438 L 24.500 18.688 L 23.250 18.688 L 23.000 19.438 L 21.812 19.375 L 23.250 15.312 L 24.688 15.500 L 25.875 19.438 Z" fill="#f47201"/>
    <path d="M 27.125 19.438 L 26.062 19.375 L 26.062 15.375 L 28.750 15.312 L 28.750 16.312 L 27.188 16.375 L 27.250 16.938 L 28.500 16.938 L 28.688 17.750 L 27.188 18.000 L 27.125 19.438 Z" fill="#f47201"/>
    <path d="M 31.875 19.438 L 29.062 19.375 L 29.125 15.312 L 31.875 15.312 L 31.875 19.438 Z" fill="#f47201"/>
    <path d="M 5.938 16.875 L 5.875 16.188 L 5.062 16.250 L 5.125 16.938 L 5.938 16.875 Z" fill="#f47201"/>
    <path d="M 13.312 17.125 L 13.688 16.875 L 13.688 16.500 L 12.875 16.188 L 12.812 17.125 L 13.312 17.125 Z" fill="#f47201"/>
    <path d="M 31.875 16.312 L 30.188 16.375 L 30.250 16.812 L 31.688 16.875 L 31.688 17.750 L 30.250 17.812 L 30.250 18.438 L 31.875 18.438 L 31.875 16.312 Z" fill="#f47201"/>
    <path d="M 24.188 17.625 L 23.875 16.438 L 23.562 17.625 L 24.188 17.625 Z" fill="#f47201"/>
    <path d="M 0.000 14.938 L 0.938 11.500 L 2.938 8.125 L 6.000 5.188 L 8.438 3.750 L 8.562 1.250 L 8.938 0.000 L 0.000 14.938 Z" fill="#03439a"/>
    <path d="M 9.938 0.000 L 10.375 3.188 L 12.125 2.812 L 14.625 2.812 L 18.750 3.938 L 21.750 5.812 L 24.062 8.250 L 25.688 10.750 L 24.500 11.812 L 23.062 9.625 L 21.000 7.312 L 17.625 5.188 L 13.375 4.062 L 10.500 4.188 L 11.500 19.438 L 10.062 19.375 L 9.875 14.812 L 8.938 14.875 L 8.812 19.375 L 7.438 19.375 L 8.375 4.812 L 5.500 6.438 L 3.562 8.500 L 2.062 11.125 L 1.188 14.500 L 1.062 17.750 L 2.188 22.375 L 3.938 25.375 L 6.250 27.812 L 7.875 28.938 L 10.250 30.062 L 13.000 30.688 L 16.000 30.562 L 18.375 29.938 L 20.125 29.062 L 22.812 26.625 L 23.688 25.375 L 24.562 23.750 L 25.438 21.000 L 4.000 20.938 L 4.000 19.812 L 26.688 19.875 L 25.812 23.125 L 23.562 26.875 L 21.750 28.688 L 19.625 30.188 L 17.500 31.188 L 15.250 31.812 L 14.562 31.875 L 9.938 0.000 Z" fill="#03439a"/>
    <path d="M 9.812 13.250 L 9.375 4.438 L 9.062 13.250 L 9.812 13.250 Z" fill="#03439a"/>
    <path d="M 11.438 31.875 L 8.625 31.188 L 6.875 30.312 L 4.062 28.000 L 1.312 23.875 L 0.438 21.500 L 0.000 19.188 L 11.438 31.875 Z" fill="#03439a"/>
  </g>
</svg>